<!-- Generator: Adobe Illustrator 23.0.2, SVG Export Plug-In  -->
<svg version="1.1" xmlns="http://www.w3.org/2000/svg" xmlns:xlink="http://www.w3.org/1999/xlink" x="0px" y="0px" width="90px"
	 height="90px" viewBox="0 0 90 90" style="enable-background:new 0 0 90 90;" xml:space="preserve">
<style type="text/css">
	.st0{fill:#2A3F8B;}
	.st1{fill:#8593AA;}
	.st2{fill:#E99CDE;}
	.st3{fill:#C663AD;}
	.st4{fill:#C95C8C;}
	.st5{fill:#767269;}
	.st6{fill:#615B4A;}
</style>
<defs>
</defs>
<g>
	<g>
		<circle class="st0" cx="45" cy="45" r="43.5"/>
		<path class="st1" d="M45,3c23.196,0,42,18.804,42,42S68.196,87,45,87S3,68.196,3,45S21.804,3,45,3 M45,0C20.187,0,0,20.187,0,45
			s20.187,45,45,45s45-20.187,45-45S69.813,0,45,0L45,0z"/>
	</g>
	<g>
		<path class="st2" d="M52.719,60.336V31.188H28.141V56.68h-4.062c-3.36,0-5.078,4.867-5.078,8.227S21.734,71,25.094,71h35.242
			v-3.047C56.135,67.953,52.719,64.537,52.719,60.336z"/>
		<path class="st3" d="M60.336,67.953V71H45V31.188h7.719v29.148C52.719,64.537,56.135,67.953,60.336,67.953z"/>
		<path class="st4" d="M60.336,19c-5.88,0-10.664,4.784-10.664,10.664v30.672h3.047c0-4.201,3.417-7.617,7.617-7.617
			s7.617,3.417,7.617,7.617H71V29.664C71,23.784,66.216,19,60.336,19z"/>
		<path class="st2" d="M71,29.664v30.672h-3.047c0-4.201-3.417-7.617-7.617-7.617V19C66.216,19,71,23.784,71,29.664z"/>
		<path class="st4" d="M25.094,25.094c-3.36,0-6.094,2.734-6.094,6.094v33.719c0-3.36,2.734-6.094,6.094-6.094h6.094
			c0-1.553,0-31.346,0-33.719H25.094z"/>
		<path class="st2" d="M60.336,49.672c-5.88,0-10.664,4.784-10.664,10.664S54.455,71,60.336,71S71,66.216,71,60.336
			S66.216,49.672,60.336,49.672z"/>
		<path class="st3" d="M71,60.336C71,66.216,66.216,71,60.336,71V49.672C66.216,49.672,71,54.455,71,60.336z"/>
		<path class="st5" d="M60.336,55.766c-2.52,0-4.57,2.051-4.57,4.57s2.051,4.57,4.57,4.57s4.57-2.051,4.57-4.57
			S62.856,55.766,60.336,55.766z"/>
		<path class="st6" d="M64.906,60.336c0,2.52-2.051,4.57-4.57,4.57v-9.141C62.856,55.766,64.906,57.816,64.906,60.336z"/>
	</g>
</g>
</svg>