<!-- Generator: Adobe Illustrator 23.0.2, SVG Export Plug-In  -->
<svg version="1.1" xmlns="http://www.w3.org/2000/svg" xmlns:xlink="http://www.w3.org/1999/xlink" x="0px" y="0px" width="90px"
	 height="90px" viewBox="0 0 90 90" style="enable-background:new 0 0 90 90;" xml:space="preserve">
<style type="text/css">
	.st0{fill:#2A3F8B;}
	.st1{fill:#8593AA;}
	.st2{fill:#285680;}
	.st3{fill:#4482C3;}
	.st4{fill:#B0D3F0;}
	.st5{fill:#90BAE1;}
	.st6{fill:#4FBA6F;}
	.st7{fill:#9FC9D3;}
	.st8{fill:#2FA8CC;}
	.st9{fill:#CC66A1;}
	.st10{fill:#FFFFFF;}
	.st11{fill:#F3D55B;}
	.st12{fill:#FF5364;}
</style>
<defs>
</defs>
<g>
	<g>
		<circle class="st0" cx="45" cy="45" r="43.5"/>
		<path class="st1" d="M45,3c23.196,0,42,18.804,42,42S68.196,87,45,87S3,68.196,3,45S21.804,3,45,3 M45,0C20.187,0,0,20.187,0,45
			s20.187,45,45,45s45-20.187,45-45S69.813,0,45,0L45,0z"/>
	</g>
	<g id="Page-1_1_">
		<g>
			<rect id="Rectangle-path_1_" x="39.207" y="57.038" class="st2" width="11.586" height="8.559"/>
			<path id="Shape_1_" class="st3" d="M21.001,49.965H69v7.448c0,0.914-0.741,1.655-1.655,1.655H22.656
				c-0.914,0-1.655-0.741-1.655-1.655V49.965z"/>
			<path class="st3" d="M38.38,64.034h13.241c1.828,0,3.31,1.482,3.31,3.31v0.828c0,0.457-0.371,0.828-0.828,0.828H35.897
				c-0.457,0-0.828-0.371-0.828-0.828v-0.828C35.069,65.516,36.551,64.034,38.38,64.034z"/>
			<path class="st2" d="M46.655,56.586h-3.31c-0.457,0-0.828-0.371-0.828-0.828s0.371-0.828,0.828-0.828h3.31
				c0.457,0,0.828,0.371,0.828,0.828S47.112,56.586,46.655,56.586z"/>
			<path class="st3" d="M69,67.345v0.828C69,68.629,68.629,69,68.172,69h-8.276c-0.457,0-0.828-0.371-0.828-0.828v-0.828
				c-0.001-2.422,1.749-4.491,4.138-4.891c0.547-0.099,1.108-0.099,1.655,0c1.018,0.162,1.958,0.647,2.681,1.382
				C68.479,64.763,69.004,66.027,69,67.345z"/>
			<path class="st2" d="M64.862,62.454v2.408c0,0.457-0.371,0.828-0.828,0.828c-0.457,0-0.828-0.371-0.828-0.828v-2.408
				C63.754,62.354,64.315,62.354,64.862,62.454z"/>
			<path class="st4" d="M69,22.655l0,29.793H21.001V22.655c0.003-0.913,0.742-1.652,1.655-1.655h44.689
				c0.535,0.001,1.038,0.26,1.349,0.695C68.895,21.975,69.003,22.311,69,22.655z"/>
			<path class="st5" d="M69,22.655l0,29.793H21.001c0-26.905,33.98-30.877,45.302-31.448h1.043c0.535,0.001,1.038,0.26,1.349,0.695
				C68.895,21.975,69.003,22.311,69,22.655z"/>
			<path class="st6" d="M57.414,40.862c0.002,2.938-1.724,5.603-4.407,6.802c-2.683,1.198-5.82,0.706-8.007-1.257
				c1.899-1.701,2.798-4.254,2.383-6.77c2.604-0.877,4.512-3.116,4.965-5.826C55.377,34.829,57.416,37.668,57.414,40.862z"/>
			<path class="st7" d="M47.483,40.862c0.002,2.118-0.901,4.136-2.483,5.545c-1.899-1.701-2.798-4.254-2.383-6.77
				c1.545,0.53,3.222,0.53,4.767,0C47.45,40.042,47.483,40.452,47.483,40.862z"/>
			<path class="st8" d="M45,46.407c-2.25,2.018-5.497,2.475-8.217,1.156c-2.72-1.319-4.372-4.151-4.182-7.168
				s2.186-5.619,5.05-6.585c0.453,2.71,2.362,4.949,4.965,5.826C42.202,42.153,43.101,44.706,45,46.407z"/>
			<path class="st9" d="M45,35.317c-1.264,1.126-2.105,2.65-2.383,4.32c-2.604-0.877-4.512-3.116-4.965-5.826
				c0.767-0.264,1.572-0.398,2.383-0.397C41.868,33.412,43.638,34.09,45,35.317z"/>
			<path class="st10" d="M47.384,39.637c-1.545,0.53-3.222,0.53-4.767,0c0.279-1.67,1.12-3.194,2.383-4.32
				C46.264,36.443,47.105,37.968,47.384,39.637z"/>
			<path class="st11" d="M52.349,33.811c-0.453,2.71-2.362,4.949-4.965,5.826c-0.279-1.67-1.12-3.194-2.383-4.32
				c1.363-1.227,3.132-1.905,4.965-1.903C50.777,33.413,51.582,33.547,52.349,33.811z"/>
			<path class="st12" d="M52.448,32.586c0.001,0.41-0.033,0.82-0.099,1.225c-0.767-0.264-1.572-0.398-2.383-0.397
				c-1.834-0.002-3.603,0.677-4.965,1.903c-1.363-1.227-3.132-1.905-4.965-1.903c-0.811-0.001-1.616,0.134-2.383,0.397
				c-0.457-2.768,0.681-5.557,2.942-7.217c2.261-1.66,5.263-1.908,7.767-0.643C50.863,27.217,52.444,29.781,52.448,32.586z"/>
			<path class="st10" d="M25.966,25.138h-1.655c-0.457,0-0.828-0.371-0.828-0.828s0.371-0.828,0.828-0.828h1.655
				c0.457,0,0.828,0.371,0.828,0.828S26.423,25.138,25.966,25.138z"/>
			<path class="st10" d="M34.242,25.138h-4.965c-0.457,0-0.828-0.371-0.828-0.828s0.371-0.828,0.828-0.828h4.965
				c0.457,0,0.828,0.371,0.828,0.828S34.699,25.138,34.242,25.138z"/>
		</g>
	</g>
</g>
</svg>