<!-- Generator: Adobe Illustrator 23.0.2, SVG Export Plug-In  -->
<svg version="1.1" xmlns="http://www.w3.org/2000/svg" xmlns:xlink="http://www.w3.org/1999/xlink" x="0px" y="0px" width="90px"
	 height="90px" viewBox="0 0 90 90" style="enable-background:new 0 0 90 90;" xml:space="preserve">
<style type="text/css">
	.st0{fill:#2A3F8B;}
	.st1{fill:#8593AA;}
	.st2{fill:#E6E6E6;}
	.st3{fill:#D2D5D7;}
	.st4{fill:#F75B57;}
	.st5{fill:#F9DA49;}
</style>
<defs>
</defs>
<g>
	<g>
		<circle class="st0" cx="45" cy="45" r="43.5"/>
		<path class="st1" d="M45,3c23.196,0,42,18.804,42,42S68.196,87,45,87S3,68.196,3,45S21.804,3,45,3 M45,0C20.187,0,0,20.187,0,45
			s20.187,45,45,45s45-20.187,45-45S69.813,0,45,0L45,0z"/>
	</g>
	<g>
		<path class="st2" d="M59,28H31c-1.1,0-2-0.9-2-2v-1c0-1.1,0.9-2,2-2h28c1.1,0,2,0.9,2,2v1C61,27.1,60.1,28,59,28z"/>
		<polygon class="st3" points="34,23 34,18 38,18 41,23 		"/>
		<g>
			<polygon class="st2" points="59,43 60,38 30,38 31,43 			"/>
			<polygon class="st2" points="32.941,63 34,72 57,72 58,63 			"/>
		</g>
		<polygon class="st4" points="60,63 31,63 29,43 61,43 		"/>
		<ellipse class="st5" cx="45" cy="53" rx="9" ry="6"/>
		<path class="st3" d="M61,38H29c-1.1,0-2-0.9-2-2v-6c0-1.1,0.9-2,2-2h32c1.1,0,2,0.9,2,2v6C63,37.1,62.1,38,61,38z"/>
	</g>
</g>
</svg>