<!-- Generator: Adobe Illustrator 23.0.2, SVG Export Plug-In  -->
<svg version="1.1" xmlns="http://www.w3.org/2000/svg" xmlns:xlink="http://www.w3.org/1999/xlink" x="0px" y="0px" width="90px"
	 height="90px" viewBox="0 0 90 90" style="enable-background:new 0 0 90 90;" xml:space="preserve">
<style type="text/css">
	.st0{fill:#2A3F8B;}
	.st1{fill:#8593AA;}
	.st2{fill:#BFA380;}
	.st3{fill:#AA8D79;}
	.st4{fill:#E1BA99;}
</style>
<defs>
</defs>
<g>
	<g>
		<circle class="st0" cx="45" cy="45" r="43.5"/>
		<path class="st1" d="M45,3c23.196,0,42,18.804,42,42S68.196,87,45,87S3,68.196,3,45S21.804,3,45,3 M45,0C20.187,0,0,20.187,0,45
			s20.187,45,45,45s45-20.187,45-45S69.813,0,45,0L45,0z"/>
	</g>
	<g>
		<path class="st2" d="M70,47h-2c0-7.168-5.832-13-13-13v-2C63.271,32,70,38.729,70,47z"/>
		<path class="st2" d="M22,68h-2c0-6.617,5.383-12,12-12v2C26.486,58,22,62.486,22,68z"/>
		<path class="st3" d="M56,37H32c-1.1,0-2-0.9-2-2l0,0c0-1.1,0.9-2,2-2h24c1.1,0,2,0.9,2,2l0,0C58,36.1,57.1,37,56,37z"/>
		<path class="st2" d="M56,41H32c-1.1,0-2-0.9-2-2l0,0c0-1.1,0.9-2,2-2h24c1.1,0,2,0.9,2,2l0,0C58,40.1,57.1,41,56,41z"/>
		<path class="st4" d="M56,45H32c-1.1,0-2-0.9-2-2l0,0c0-1.1,0.9-2,2-2h24c1.1,0,2,0.9,2,2l0,0C58,44.1,57.1,45,56,45z"/>
		<path class="st2" d="M56,49H32c-1.1,0-2-0.9-2-2l0,0c0-1.1,0.9-2,2-2h24c1.1,0,2,0.9,2,2l0,0C58,48.1,57.1,49,56,49z"/>
		<path class="st4" d="M56,53H32c-1.1,0-2-0.9-2-2l0,0c0-1.1,0.9-2,2-2h24c1.1,0,2,0.9,2,2l0,0C58,52.1,57.1,53,56,53z"/>
		<path class="st3" d="M56,57H32c-1.1,0-2-0.9-2-2l0,0c0-1.1,0.9-2,2-2h24c1.1,0,2,0.9,2,2l0,0C58,56.1,57.1,57,56,57z"/>
		<path class="st2" d="M56.353,33v-2c0-8.25-5.559-15-12.353-15s-12.353,6.75-12.353,15v2H56.353z"/>
		<g>
			<path class="st4" d="M52.235,33v-2c0-6.065-3.24-10-8.235-10s-8.235,3.935-8.235,10v2H52.235z"/>
		</g>
		<g>
			<path class="st2" d="M48.118,33v-2c0-2-1.647-5-4.118-5s-4.118,2-4.118,5v2H48.118z"/>
		</g>
		<path class="st2" d="M31.647,57v2c0,8.25,5.559,15,12.353,15s12.353-6.75,12.353-15v-2H31.647z"/>
		<g>
			<path class="st4" d="M35.765,57v2c0,6.065,3.24,10,8.235,10s8.235-3.935,8.235-10v-2H35.765z"/>
		</g>
		<g>
			<path class="st2" d="M39.882,57v2c0,2,1.647,5,4.118,5s4.118-2,4.118-5v-2H39.882z"/>
		</g>
	</g>
</g>
</svg>